<?xml version="1.0" standalone="no"?>
<!DOCTYPE svg PUBLIC "-//W3C//DTD SVG 20010904//EN"
 "http://www.w3.org/TR/2001/REC-SVG-20010904/DTD/svg10.dtd">
<svg version="1.0" xmlns="http://www.w3.org/2000/svg"
 width="406.000000pt" height="405.000000pt" viewBox="0 0 406.000000 405.000000"
 preserveAspectRatio="xMidYMid meet">

<g transform="translate(0.000000,405.000000) scale(0.100000,-0.100000)"
fill="#fff" stroke="none">
<path d="M1363 2964 c-3 -8 -4 -263 -1 -565 l5 -549 38 -78 c97 -197 320 -328
524 -307 254 25 434 203 466 459 l7 56 -151 0 -151 0 0 -24 c0 -33 -25 -100
-51 -135 -77 -105 -259 -107 -349 -5 l-30 35 0 137 c0 241 -12 967 -16 980 -2
9 -40 12 -144 12 -119 0 -142 -2 -147 -16z"/>
<path d="M1890 2837 l0 -147 58 0 c82 0 199 -32 291 -80 229 -119 371 -360
371 -627 0 -121 -22 -212 -75 -319 -108 -220 -329 -373 -565 -391 l-80 -6 0
-149 0 -150 53 7 c269 33 467 127 645 306 213 214 326 530 294 816 -40 350
-237 637 -537 783 -127 62 -228 89 -355 97 l-100 6 0 -146z"/>
</g>
</svg>
